<?xml version="1.0" encoding="utf-8"?>
<!-- Generator: Adobe Illustrator 20.1.0, SVG Export Plug-In . SVG Version: 6.00 Build 0)  -->
<svg version="1.1" id="Calque_1" xmlns="http://www.w3.org/2000/svg" xmlns:xlink="http://www.w3.org/1999/xlink" x="0px" y="0px"
	 viewBox="0 0 16382.8 16349.6" style="enable-background:new 0 0 16382.8 16349.6;" xml:space="preserve">
<style type="text/css">
	.st0{fill:currentColor;}
	.st1{fill:#2C4B9B;}
	.st2{fill:#86AC40;}
</style>
<g>
	<g>
		<path class="st0" d="M114.9,8249.7c-59.6,0-106.6-47-106.6-106.6V6246c0-59.6,47-106.6,106.6-106.6h1006.5
			c53.3,0,97.2,43.9,97.2,97.2c0,53.3-43.9,97.2-97.2,97.2H221.5v755.7h689.8c53.3,0,97.2,43.9,97.2,97.2
			c0,53.3-43.9,97.2-97.2,97.2H221.5v771.3h934.4c53.3,0,97.2,43.9,97.2,97.2c0,53.4-43.9,97.2-97.2,97.2H114.9z"/>
		<path class="st0" d="M2730,7359.2L2159.3,8234c-15.7,25.1-50.2,40.8-84.7,40.8c-59.5,0-106.6-47-106.6-106.6
			c0-22,6.3-40.8,15.7-56.5l627.1-943.8l-589.5-890.5c-9.4-12.6-15.7-37.6-15.7-56.4c0-59.6,47.1-106.6,106.6-106.6
			c43.9,0,72.1,21.9,94,53.3l523.7,802.7l523.6-802.7c21.9-31.3,50.2-53.3,94-53.3c59.5,0,106.6,47,106.6,106.6
			c0,18.8-6.3,43.9-15.7,56.4l-589.5,890.5l627.1,943.8c9.4,15.7,15.7,34.5,15.7,56.5c0,59.5-47.1,106.6-106.6,106.6
			c-34.5,0-69-15.7-84.7-40.8L2730,7359.2z"/>
		<path class="st0" d="M4900,7544.2h-627.1c-47,0-84.7-37.6-84.7-84.7c0-47.1,37.6-84.7,84.7-84.7H4900c47,0,84.7,37.6,84.7,84.7
			C4984.6,7506.5,4947,7544.2,4900,7544.2z"/>
		<path class="st0" d="M6185.6,8168.2c0,59.5-47.1,106.6-106.6,106.6c-59.6,0-106.6-47-106.6-106.6V6246
			c0-59.6,47-106.6,106.6-106.6H6703c335.6,0,598.9,194.4,598.9,611.4c0,410.8-257.1,614.6-598.9,614.6h-517.3V8168.2z M6185.6,7171
			h486c254,0,413.9-147.4,413.9-420.2c0-275.9-163-417-413.9-417h-486V7171z"/>
		<path class="st0" d="M8455.9,8168.2c0,59.5-47.1,106.6-106.6,106.6c-59.6,0-106.6-47-106.6-106.6V6246
			c0-59.6,47-106.6,106.6-106.6h623.9c348.1,0,598.9,263.4,598.9,598.9c0,323-222.6,583.2-561.3,598.9l573.9,765.1
			c15.7,18.8,21.9,43.9,21.9,65.9c0,59.5-47,106.6-106.6,106.6c-31.4,0-65.9-12.5-91-50.2l-636.5-887.4h-316.6V8168.2z
			 M8455.9,7142.8h523.6c219.5,0,376.2-178.7,376.2-404.5c0-232-159.9-404.5-385.7-404.5h-514.2V7142.8z"/>
		<path class="st0" d="M10625.7,8249.7c-59.6,0-106.6-47-106.6-106.6V6246c0-59.6,47-106.6,106.6-106.6h1006.5
			c53.3,0,97.2,43.9,97.2,97.2c0,53.3-43.9,97.2-97.2,97.2h-899.9v755.7h689.8c53.3,0,97.2,43.9,97.2,97.2
			c0,53.3-43.9,97.2-97.2,97.2h-689.8v771.3h934.4c53.3,0,97.2,43.9,97.2,97.2c0,53.4-43.9,97.2-97.2,97.2H10625.7z"/>
		<path class="st0" d="M13338,6289.9c-329.2,0-454.6,163-454.6,341.8c0,520.5,1185.2,297.9,1185.2,1053.6
			c0,391.9-269.7,608.3-752.6,608.3c-357.4,0-623.9-181.9-730.6-385.7c-12.5-25.1-15.7-37.6-15.7-56.4
			c0-56.4,43.9-100.3,100.3-100.3c37.6,0,69,18.8,87.8,50.2c100.4,163,282.3,297.9,558.1,297.9c344.9,0,539.4-138,539.4-413.9
			c0-586.3-1185.3-310.4-1185.3-1053.6c0-288.5,210.1-536.2,667.9-536.2c297.9,0,539.3,125.4,671,323c12.5,18.8,18.8,37.6,18.8,59.6
			c0,56.4-43.9,100.3-100.3,100.3c-28.2,0-56.5-9.4-81.5-40.8C13751.9,6421.6,13601.5,6289.9,13338,6289.9z"/>
		<path class="st0" d="M15652.3,6289.9c-329.2,0-454.6,163-454.6,341.8c0,520.5,1185.2,297.9,1185.2,1053.6
			c0,391.9-269.7,608.3-752.6,608.3c-357.4,0-623.9-181.9-730.6-385.7c-12.5-25.1-15.7-37.6-15.7-56.4
			c0-56.4,43.9-100.3,100.3-100.3c37.6,0,69,18.8,87.8,50.2c100.4,163,282.3,297.9,558.1,297.9c344.9,0,539.4-138,539.4-413.9
			c0-586.3-1185.3-310.4-1185.3-1053.6c0-288.5,210.1-536.2,667.9-536.2c297.9,0,539.3,125.4,671,323c12.5,18.8,18.8,37.6,18.8,59.6
			c0,56.4-43.9,100.3-100.3,100.3c-28.2,0-56.5-9.4-81.5-40.8C16066.1,6421.6,15915.7,6289.9,15652.3,6289.9z"/>
	</g>
	<path class="st1" d="M8493.2,1698c2474.4,0,4577.3,1616.1,5312.1,3847.7c79.5-14.3,159.9-22.8,240.9-25.2
		c-751-2351.1-2956-4058.8-5553-4058.8c-2595.2,0-4798.8,1705.3-5551.3,4053.9c77.5,18.7,152.6,42.6,225.3,71.3
		C3889.4,3333.9,6003.5,1698,8493.2,1698z"/>
	<path class="st1" d="M13803.7,9039.2c-736.1,2229.3-2837.8,3843.2-5310.5,3843.2c-2525.4,0-4664.1-1683.1-5356-3986.2
		c-73.7,28.2-149.2,51.3-225.9,69.4c721.6,2399.6,2950.4,4153.1,5581.9,4153.1c2596.1,0,4800.4-1706.5,5552.2-4056.4
		C13962.9,9060,13882.2,9052.3,13803.7,9039.2z"/>
	<g>
		<path class="st0" d="M13309.5,11176.1c-46.3,50.7-104.6,91.5-174.8,118.2c133.3,285.1,208.3,602.8,208.3,937.8
			c0,1225.2-996.7,2222-2221.9,2222c-834.9,0-1563.5-463.1-1943.1-1145.8c-40.7,57-94.1,105-159.8,139.5
			c420.9,725.3,1205.6,1214.5,2102.9,1214.5c1340,0,2430.1-1090.2,2430.1-2430.2C13551.2,11853.9,13464.3,11495.6,13309.5,11176.1z"
			/>
		<path class="st0" d="M8774.4,12463.9c50.3,0,96.3,6.5,139,17.3c-9.2-81.8-14.3-164.8-14.3-249.1c0-1225.2,996.8-2222,2222-2222
			c530.8,0,1018.5,187.3,1401,499c36.9-59,85.9-110.2,147.4-148.4c-420.8-348.8-960.5-558.7-1548.4-558.7
			c-1340,0-2430.2,1090.2-2430.2,2430.2c0,79.8,4.1,158.6,11.7,236.5C8725.7,12465.8,8749.5,12463.9,8774.4,12463.9z"/>
	</g>
	<g>
		<path class="st2" d="M5235.1,9216c-15.9,0-28.4-12.5-28.4-28.4V8682c0-15.9,12.6-28.4,28.4-28.4h268.3c14.2,0,25.9,11.7,25.9,25.9
			c0,14.2-11.7,25.9-25.9,25.9h-239.8v201.4h183.9c14.2,0,25.9,11.7,25.9,25.9c0,14.2-11.7,25.9-25.9,25.9h-183.9v205.6h249
			c14.2,0,25.9,11.7,25.9,25.9c0,14.2-11.7,25.9-25.9,25.9H5235.1z"/>
		<path class="st2" d="M5672.4,8935.2c0-198.1,98.7-293.4,260.8-293.4c79.4,0,148.8,34.3,188,88.6c4.2,5.9,5.9,11.7,5.9,17.6
			c0,15-11.7,26.7-26.7,26.7c-7.5,0-15-2.5-21.7-10.9c-28.4-39.3-82.7-70.2-145.4-70.2c-128.7,0-202.2,77.8-202.2,241.6
			c0,173.8,73.6,240.7,202.2,240.7c55.2,0,112.8-21.8,145.4-68.5c5.9-8.4,15-10.9,21.7-10.9c15,0,26.7,11.7,26.7,26.7
			c0,6.7-1.6,10.9-5,15.9c-36.8,53.5-112,88.6-188.9,88.6C5771.1,9227.7,5672.4,9140.8,5672.4,8935.2z"/>
		<path class="st2" d="M6262.7,8935.2c0-198.1,98.7-293.4,260.8-293.4c162.2,0,260.8,95.3,260.8,293.4
			c0,196.4-98.6,292.5-260.8,292.5C6361.4,9227.7,6262.7,9131.6,6262.7,8935.2z M6321.3,8935.2c0,163,74.4,240.7,202.2,240.7
			s202.2-77.7,202.2-240.7c0-163.8-74.4-241.6-202.2-241.6S6321.3,8771.4,6321.3,8935.2z"/>
		<path class="st0" d="M7358.9,8653.6c159.6,0,258.2,75.2,258.2,281.7c0,206.4-98.7,280.8-258.2,280.8H7241
			c-15.9,0-28.4-12.5-28.4-28.4V8682c0-15.9,12.6-28.4,28.4-28.4H7358.9z M7269.5,9164.2h89.4c124.5,0,200.5-55.2,200.5-229
			c0-172.2-76-229.9-200.5-229.9h-89.4V9164.2z"/>
		<path class="st0" d="M7840.6,9194.3c0,15.9-12.6,28.4-28.4,28.4s-28.4-12.5-28.4-28.4V8682c0-15.9,12.5-28.4,28.4-28.4h166.3
			c92.8,0,159.6,70.2,159.6,159.6c0,86.1-59.3,155.4-149.6,159.6l153,203.9c4.2,5,5.9,11.7,5.9,17.6c0,15.9-12.5,28.4-28.4,28.4
			c-8.4,0-17.6-3.3-24.2-13.3L7925,8972.8h-84.4V9194.3z M7840.6,8921h139.6c58.5,0,100.2-47.6,100.2-107.8
			c0-61.9-42.6-107.9-102.8-107.9h-137.1V8921z"/>
		<path class="st0" d="M8424.2,9194.3v-239.9l-167.9-264.1c-2.5-4.2-4.2-9.2-4.2-15c0-15.9,12.6-28.4,28.4-28.4
			c10,0,19.2,5,24.2,13.3l147.9,237.4l147.9-237.4c5-8.4,14.2-13.3,24.2-13.3c15.9,0,28.4,12.5,28.4,28.4c0,5.9-1.6,10.9-4.2,15
			l-168,264.1v239.9c0,15.9-12.5,28.4-28.4,28.4S8424.2,9210.1,8424.2,9194.3z"/>
		<path class="st0" d="M9030.4,8935.2c0-198.1,98.7-293.4,260.8-293.4c79.4,0,148.8,34.3,188,88.6c4.2,5.9,5.9,11.7,5.9,17.6
			c0,15-11.7,26.7-26.7,26.7c-7.5,0-15-2.5-21.7-10.9c-28.4-39.3-82.7-70.2-145.4-70.2c-128.7,0-202.2,77.8-202.2,241.6
			c0,173.8,73.6,240.7,202.2,240.7c55.2,0,112.8-21.8,145.4-68.5c5.9-8.4,15-10.9,21.7-10.9c15,0,26.7,11.7,26.7,26.7
			c0,6.7-1.6,10.9-5,15.9c-36.8,53.5-112,88.6-188.9,88.6C9129.1,9227.7,9030.4,9140.8,9030.4,8935.2z"/>
		<path class="st0" d="M9936.7,9162.5c15,0,26.7,11.7,26.7,26.7s-11.7,26.7-26.7,26.7h-257.4c-15.9,0-28.4-12.5-28.4-28.4v-512.3
			c0-15.9,12.5-28.4,28.4-28.4s28.4,12.5,28.4,28.4v487.2H9936.7z"/>
		<path class="st0" d="M10145.9,9216c-15.9,0-28.4-12.5-28.4-28.4V8682c0-15.9,12.6-28.4,28.4-28.4h268.2
			c14.2,0,25.9,11.7,25.9,25.9c0,14.2-11.7,25.9-25.9,25.9h-239.8v201.4h183.9c14.2,0,25.9,11.7,25.9,25.9
			c0,14.2-11.7,25.9-25.9,25.9h-183.9v205.6h249c14.2,0,25.9,11.7,25.9,25.9c0,14.2-11.7,25.9-25.9,25.9H10145.9z"/>
		<path class="st0" d="M10686.1,9049.7l-61,153c-4.2,10.8-13.3,20-27.6,20c-15.9,0-28.4-13.3-28.4-28.4c0-3.3,0.8-9.2,2.4-12.5
			l203.9-515.7c4.2-10,11.7-19.2,26.7-19.2c14.2,0,23.4,9.2,27.6,19.2l203.9,515.7c1.7,4.2,2.5,10,2.5,12.5
			c0,15-11.7,28.4-29.3,28.4c-14.2,0-23.4-8.3-27.6-19.2l-60.2-153.8H10686.1z M10802.2,8742.2l-98.6,255.7h198.1L10802.2,8742.2z"
			/>
		<path class="st0" d="M11581.4,8674.5v519.8c0,15.9-12.6,28.4-28.4,28.4c-10,0-17.6-4.2-23.4-11.6l-294.2-443.8v427.9
			c0,15-12.5,27.6-27.6,27.6s-27.6-12.5-27.6-27.6v-520.6c0-15,12.5-27.6,27.6-27.6c10,0,18.4,5.9,22.6,11.7l295.8,444.6v-428.7
			c0-15,12.5-27.6,27.6-27.6S11581.4,8659.4,11581.4,8674.5z"/>
	</g>
	<g>
		<path class="st0" d="M7274.4,9773.7c0,51.2,128.3,32.2,128.3,110.3c0,44.4-36.5,64.4-83,64.4c-40,0-70.8-19-83.4-35.1
			c-2.4-3.4-3.4-5.9-3.4-9.3c0-7.8,6.3-14.2,14.2-14.2c2.9,0,6.8,1,10.7,4.8c15.2,15.2,34.7,24,62,24c27.8,0,51.7-9.3,51.7-34.6
			c0-50.3-128.3-30.3-128.3-110.3c0-40.5,33.2-59.1,74.7-59.1c33.1,0,59,11.2,74.2,31.2c1.4,2,3.4,4.9,3.4,9.3
			c0,7.8-6.3,14.2-14.2,14.2c-2.4,0-6.3-0.5-10.3-4.4c-13.1-12.7-27.8-20.6-53.1-20.6C7295.9,9744.4,7274.4,9751.3,7274.4,9773.7z"
			/>
		<path class="st0" d="M7488.6,9652.7c0-14.2,6.8-19.5,18.6-19.5c11.7,0,18.5,5.4,18.5,19.5c0,11.7-6.8,18.6-18.5,18.6
			C7495.4,9671.2,7488.6,9664.4,7488.6,9652.7z M7522.7,9930.8c0,8.8-6.8,15.7-15.6,15.7c-8.8,0-15.7-6.9-15.7-15.7v-198.2
			c0-8.8,6.8-15.6,15.7-15.6c8.8,0,15.6,6.8,15.6,15.6V9930.8z"/>
		<path class="st0" d="M7808.6,9800.5v130.3c0,8.8-6.9,15.7-15.7,15.7s-15.6-6.9-15.6-15.7v-124c0-38.5-11.2-64.9-58.6-64.9
			c-48.3,0-64.9,29.3-64.9,68.3v120.5c0,8.8-6.8,15.7-15.6,15.7s-15.7-6.9-15.7-15.7v-198.2c0-8.8,6.9-15.6,15.7-15.6
			s15.6,6.8,15.6,15.6v15.7c9.3-18.6,33.2-34.2,64.9-34.2C7793.9,9714.2,7808.6,9759.1,7808.6,9800.5z"/>
		<path class="st0" d="M7989.5,9714.2c43.5,0,67.4,22.9,75.2,33.7c2.5,3.4,3.4,5.9,3.4,9.3c0,8.3-6.3,14.2-14.2,14.2
			c-4.9,0-8.3-2-11.7-5.9c-7.3-8.3-20.5-22.9-52.7-22.9c-44.8,0-68.8,28.8-68.8,88.8c0,61,24,89.3,68.8,89.3
			c28.3,0,45.4-12.7,56.6-21c3.5-2.5,5.9-3.4,9.3-3.4c7.8,0,14.2,6.3,14.2,14.2c0,4.4-1.5,7.8-6.4,12.2
			c-10.7,8.8-34.2,26.3-73.7,26.3c-62.9,0-100.5-37.6-100.5-117.6C7889,9751.3,7926.6,9714.2,7989.5,9714.2z"/>
		<path class="st0" d="M8241.1,9714.2c78.1,0,93.2,62,93.2,95.1c0,14.2,0,31.2-19.5,31.2h-142.5c0,48.3,27.8,79.5,73.7,79.5
			c28.3,0,44.9-10.7,58.6-21c2.9-2,4.8-2.9,8.8-2.9c7.8,0,14.2,6.3,14.2,14.2c0,5.4-2.5,8.3-5.4,11.2c-7.3,7.3-32.7,27.3-76.1,27.3
			c-64.9,0-105.4-35.6-105.4-117.6C8140.6,9756.2,8177.7,9714.2,8241.1,9714.2z M8241.1,9742.5c-42.5,0-65.9,27.3-68.8,70.8h131.3
			C8303.6,9778.1,8291.4,9742.5,8241.1,9742.5z"/>
		<path class="st0" d="M8583.1,9692.7c-2.9,2-5.9,2.9-9.3,2.9c-8.3,0-15.7-7.3-15.7-15.6c0-4.9,2.5-10.3,6.9-13.2l76.6-53.2
			c3.4-2.4,6.3-3.4,9.7-3.4c8.8,0,16.1,7.3,16.1,16.1v304c0,8.8-7.3,16.1-16.1,16.1s-16.1-7.3-16.1-16.1v-275.3L8583.1,9692.7z"/>
		<path class="st0" d="M8771.3,9717.1c0-78.6,46.9-109.8,113.7-109.8c81.5,0,115.7,67.8,115.7,163.5c0,126.4-45.4,178.6-122.5,178.6
			c-38.6,0-66.9-14.2-78.6-26.9c-3.4-3.4-4.8-7.3-4.8-11.2c0-8.3,6.8-15.1,15.1-15.1c3.4,0,6.3,1,10.2,3.9
			c15.7,11.7,34.7,20,58.1,20c68.8,0,90.3-60,90.3-137.6c-13.2,19.5-43.5,42.9-86.4,42.9C8818.2,9825.4,8771.3,9791.3,8771.3,9717.1
			z M8803.6,9717.1c0,56.1,34.6,79.1,78.5,79.1c41,0,67.4-23.5,84-53.2c0-61.5-27.8-106.4-81-106.4
			C8837.7,9636.5,8803.6,9657.1,8803.6,9717.1z"/>
		<path class="st0" d="M9084,9717.1c0-78.6,46.9-109.8,113.7-109.8c81.5,0,115.7,67.8,115.7,163.5c0,126.4-45.4,178.6-122.5,178.6
			c-38.6,0-66.9-14.2-78.6-26.9c-3.4-3.4-4.9-7.3-4.9-11.2c0-8.3,6.9-15.1,15.2-15.1c3.4,0,6.3,1,10.2,3.9
			c15.7,11.7,34.7,20,58.1,20c68.8,0,90.3-60,90.3-137.6c-13.2,19.5-43.5,42.9-86.4,42.9C9130.9,9825.4,9084,9791.3,9084,9717.1z
			 M9116.3,9717.1c0,56.1,34.6,79.1,78.5,79.1c41,0,67.4-23.5,84-53.2c0-61.5-27.8-106.4-81-106.4
			C9150.4,9636.5,9116.3,9657.1,9116.3,9717.1z"/>
		<path class="st0" d="M9565,9644.4h-164.5c-8.3,0-15.2-6.8-15.2-15.1s6.9-15.1,15.2-15.1h182c8.3,0,15.1,6.8,15.1,15.1
			c0,110.8-139.1,142-139.1,301.6c0,8.8-6.8,15.7-15.6,15.7c-8.8,0-15.7-6.9-15.7-15.7C9427.4,9769.3,9565,9719.1,9565,9644.4z"/>
	</g>
</g>
</svg>
